<svg width="64" height="64" viewBox="0 0 64 64" fill="none" xmlns="http://www.w3.org/2000/svg">
<path fill-rule="evenodd" clip-rule="evenodd" d="M27.9964 10.6667C26.4176 4.53253 20.8492 0 14.2222 0C6.36751 0 0 6.36751 0 14.2222C0 22.0769 6.36751 28.4444 14.2222 28.4444C20.8492 28.4444 26.4176 23.9119 27.9964 17.7778H40.2963V29.6296H47.4074V17.7778H52.1481V29.6296H59.2593V17.7778H64V10.6667H27.9964ZM21.3333 14.2222C21.3333 18.1496 18.1496 21.3333 14.2222 21.3333C10.2949 21.3333 7.11111 18.1496 7.11111 14.2222C7.11111 10.2949 10.2949 7.11111 14.2222 7.11111C18.1496 7.11111 21.3333 10.2949 21.3333 14.2222Z" fill="white"/>
<path fill-rule="evenodd" clip-rule="evenodd" d="M36.0036 53.3333C37.5824 59.4675 43.1508 64 49.7778 64C57.6325 64 64 57.6325 64 49.7778C64 41.9231 57.6325 35.5556 49.7778 35.5556C43.1508 35.5555 37.5824 40.0881 36.0036 46.2222H23.7037V34.3704H16.5926L16.5926 46.2222H11.8519L11.8519 34.3704H4.74074L4.74074 46.2222H1.55418e-06L9.32509e-07 53.3333H36.0036ZM42.6667 49.7778C42.6667 45.8504 45.8504 42.6667 49.7778 42.6667C53.7051 42.6667 56.8889 45.8504 56.8889 49.7778C56.8889 53.7051 53.7051 56.8889 49.7778 56.8889C45.8504 56.8889 42.6667 53.7051 42.6667 49.7778Z" fill="white"/>
</svg>
