<svg width="16" height="16" viewBox="0 0 16 16" fill="none" xmlns="http://www.w3.org/2000/svg">
<path d="M0 10C0 8.89543 0.895431 8 2 8V8C3.10457 8 4 8.89543 4 10V14C4 15.1046 3.10457 16 2 16V16C0.895431 16 0 15.1046 0 14V10Z" fill="#C4F042"/>
<path d="M6 6C6 4.89543 6.89543 4 8 4V4C9.10457 4 10 4.89543 10 6V14C10 15.1046 9.10457 16 8 16V16C6.89543 16 6 15.1046 6 14V6Z" fill="#707070"/>
<path d="M12 2C12 0.895431 12.8954 0 14 0V0C15.1046 0 16 0.895431 16 2V14C16 15.1046 15.1046 16 14 16V16C12.8954 16 12 15.1046 12 14V2Z" fill="#707070"/>
</svg>
