<svg xmlns="http://www.w3.org/2000/svg" width="14" height="14" viewBox="0 0 14 14" fill="none">
  <g clip-path="url(#clip0_5576_70196)">
    <path fill-rule="evenodd" clip-rule="evenodd" d="M9.76866 2.29851H0.130597V0H9.76866C11.5709 0 13.0336 1.46269 13.0336 3.26493C13.0336 5.06716 11.5709 6.52985 9.76866 6.52985H2.76866C2.50746 6.52985 2.27239 6.73881 2.27239 7C2.27239 7.26119 2.48134 7.47015 2.76866 7.47015H9.76866C11.5709 7.47015 13.0336 8.93284 13.0336 10.7351C13.0336 12.5373 11.5709 14 9.76866 14H0.130597V11.7015H9.76866C10.291 11.7015 10.7351 11.2575 10.7351 10.7351C10.7351 10.2127 10.291 9.76866 9.76866 9.76866H2.76866C1.25373 9.76866 0 8.54105 0 7C0 5.45896 1.25373 4.23134 2.76866 4.23134H9.76866C10.291 4.23134 10.7351 3.78731 10.7351 3.26493C10.7351 2.71642 10.291 2.29851 9.76866 2.29851Z" fill="#707070"/>
  </g>
  <defs>
    <clipPath id="clip0_5576_70196">
      <rect width="13.0336" height="14" fill="white"/>
    </clipPath>
  </defs>
</svg> 