<svg width="32" height="32" viewBox="0 0 32 32" fill="none" xmlns="http://www.w3.org/2000/svg">
<path fill-rule="evenodd" clip-rule="evenodd" d="M13.9982 5.33333C13.2088 2.26626 10.4246 0 7.11111 0C3.18375 0 0 3.18375 0 7.11111C0 11.0385 3.18375 14.2222 7.11111 14.2222C10.4246 14.2222 13.2088 11.956 13.9982 8.88889H20.1481V14.8148H23.7037V8.88889H26.0741V14.8148H29.6296V8.88889H32V5.33333H13.9982ZM10.6667 7.11111C10.6667 9.07479 9.07479 10.6667 7.11111 10.6667C5.14743 10.6667 3.55556 9.07479 3.55556 7.11111C3.55556 5.14743 5.14743 3.55556 7.11111 3.55556C9.07479 3.55556 10.6667 5.14743 10.6667 7.11111Z" fill="#2E2E2E"/>
<path fill-rule="evenodd" clip-rule="evenodd" d="M18.0018 26.6667C18.7912 29.7337 21.5754 32 24.8889 32C28.8162 32 32 28.8162 32 24.8889C32 20.9615 28.8162 17.7778 24.8889 17.7778C21.5754 17.7778 18.7912 20.044 18.0018 23.1111H11.8519V17.1852H8.2963L8.2963 23.1111H5.92593L5.92593 17.1852H2.37037L2.37037 23.1111H7.77091e-07L4.66255e-07 26.6667H18.0018ZM21.3333 24.8889C21.3333 22.9252 22.9252 21.3333 24.8889 21.3333C26.8526 21.3333 28.4444 22.9252 28.4444 24.8889C28.4444 26.8526 26.8526 28.4444 24.8889 28.4444C22.9252 28.4444 21.3333 26.8526 21.3333 24.8889Z" fill="#2E2E2E"/>
</svg>
