<svg width="46" height="46" viewBox="0 0 46 46" fill="none" xmlns="http://www.w3.org/2000/svg">
<path fill-rule="evenodd" clip-rule="evenodd" d="M20.185 8C19.0748 3.68693 15.1596 0.5 10.5 0.5C4.97715 0.5 0.5 4.97715 0.5 10.5C0.5 16.0228 4.97715 20.5 10.5 20.5C15.1596 20.5 19.0748 17.3131 20.185 13H28.8333V21.3333H33.8333V13H37.1667V21.3333H42.1667V13H45.5V8H20.185ZM15.5 10.5C15.5 13.2614 13.2614 15.5 10.5 15.5C7.73858 15.5 5.5 13.2614 5.5 10.5C5.5 7.73858 7.73858 5.5 10.5 5.5C13.2614 5.5 15.5 7.73858 15.5 10.5Z" fill="black"/>
<path fill-rule="evenodd" clip-rule="evenodd" d="M25.815 38C26.9251 42.3131 30.8404 45.5 35.5 45.5C41.0228 45.5 45.5 41.0228 45.5 35.5C45.5 29.9772 41.0228 25.5 35.5 25.5C30.8404 25.5 26.9252 28.6869 25.815 33H17.1667V24.6667H12.1667L12.1667 33H8.83333L8.83333 24.6667H3.83334L3.83333 33H0.500001L0.500001 38H25.815ZM30.5 35.5C30.5 32.7386 32.7386 30.5 35.5 30.5C38.2614 30.5 40.5 32.7386 40.5 35.5C40.5 38.2614 38.2614 40.5 35.5 40.5C32.7386 40.5 30.5 38.2614 30.5 35.5Z" fill="black"/>
</svg>
