<svg width="17" height="14" viewBox="0 0 17 14" fill="none" xmlns="http://www.w3.org/2000/svg">
<g clip-path="url(#clip0_3707_85712)">
<path d="M8.68941 0C9.63777 0 10.5557 0.183373 11.4241 0.542636C11.8849 0.733494 12.3267 0.976744 12.7381 1.26116L12.6505 1.30607L11.5231 1.87116C10.6623 1.39963 9.68348 1.15263 8.68941 1.15263H8.6437C7.87815 1.16012 7.13165 1.30981 6.42703 1.59797C5.72242 1.88987 5.09018 2.30527 4.54934 2.83667C3.44482 3.92569 2.83542 5.37022 2.83542 6.90457C2.83542 7.15531 2.85066 7.40604 2.88494 7.65678L2.89636 7.73537L2.96873 7.69794L16.9962 0.666132V1.96097L14.6462 3.1398L13.4922 3.71612L3.23534 8.8618L3.18963 8.888L2.13081 9.41566V9.41192L2.0813 9.43438L0.375 10.2914V8.99653L0.953924 8.70837C1.43763 8.46512 1.72709 7.96365 1.6852 7.4285C1.67377 7.25261 1.66615 7.07672 1.66615 6.90083C1.66615 5.96899 1.85278 5.06335 2.21841 4.2101C2.57262 3.3868 3.07918 2.64956 3.72285 2.01337C4.36652 1.38091 5.11684 0.879444 5.95476 0.531409C6.81933 0.183373 7.74104 0 8.68941 0Z" fill="white"/>
<path d="M16.4211 5.27667L17 4.98851V3.69366L3.87139 10.2727L2.71735 10.849L0.375 12.0241V13.3189L14.4025 6.30206L14.4748 6.26464L14.4863 6.34323C14.5205 6.59396 14.5358 6.84844 14.5358 7.09917C14.5358 8.63352 13.9264 10.0818 12.8219 11.1671C12.281 11.6985 11.6488 12.1139 10.9442 12.4058C10.2395 12.6977 9.49304 12.8474 8.72749 12.8511H8.6856C7.68772 12.8511 6.70507 12.6004 5.8443 12.1288L5.7986 12.1513L4.63313 12.7351C5.04447 13.0195 5.48628 13.2628 5.95095 13.4574C6.81933 13.8166 7.73723 14 8.6856 14C9.63396 14 10.5557 13.8166 11.4202 13.4574C12.2544 13.1093 13.0085 12.6116 13.6522 11.9754C14.2958 11.3392 14.8024 10.602 15.1566 9.77867C15.5222 8.92542 15.7089 8.01978 15.7089 7.08795C15.7089 6.91206 15.705 6.73243 15.6898 6.55654C15.6479 6.02138 15.9374 5.51992 16.4211 5.27667Z" fill="white"/>
</g>
<defs>
<clipPath id="clip0_3707_85712">
<rect width="16.625" height="14" fill="white" transform="translate(0.375)"/>
</clipPath>
</defs>
</svg>
